<?xml version="1.0" encoding="UTF-8"?>
<svg id="Camada_2" data-name="Camada 2" xmlns="http://www.w3.org/2000/svg" viewBox="0 0 476.88 219.44">
  <defs>
    <style>
      .cls-1 {
        fill: #11174a;
      }

      .cls-2 {
        stroke: #14174a;
        stroke-miterlimit: 10;
        stroke-width: 4px;
      }

      .cls-2, .cls-3 {
        fill: #84c1bb;
      }

      .cls-4 {
        fill: #f8f7f7;
      }

      .cls-5 {
        fill: none;
      }

      .cls-6 {
        fill: #001648;
      }

      .cls-7 {
        fill: #14174a;
      }
    </style>
  </defs>
  <g id="Camada_4" data-name="Camada 4">
    <g>
      <path class="cls-1" d="M111.62,52.91c0,24.71-16.53,44.4-40.41,46.49-2.69.35-5.13.48-7.1.51-5.26.08-18.78,2.16-24.41,4.64-6.37,2.81-13.07,7.91-15.68,12.28-1.95,3.29-6.06,11.09-7.5,14.87-1.36,3.58-4.02,14.61-4.02,14.61l-10.65-.29L0,77.95s.4-23.93,1.68-30.7c1.18-6.24,2.26-12.85,5.1-17.64.1-.19.22-.37.35-.57C15.83,11.89,34.82,0,56.84,0c29.98,0,54.33,22.04,54.77,49.39l-.12.11c.05.63.08,1.26.11,1.9v.05c-.01.47-.02.93-.06,1.4l.08.06Z"/>
      <path class="cls-6" d="M111.59,49.76c0,.42,0,.83-.02,1.25-.02-.64-.06-1.27-.11-1.9l.12-.11c.01.26.01.5.01.76Z"/>
      <path class="cls-6" d="M111.59,52.51l-.08-.06c.04-.47.05-.93.06-1.4.01.49.02.97.02,1.46Z"/>
      <path class="cls-6" d="M111.59,48.99v3.52l-.08-.06c.04-.47.05-.93.06-1.4v-.05c-.02-.64-.06-1.27-.11-1.9l.12-.11h.01Z"/>
      <path class="cls-3" d="M106.55,48.21c0,24.33-21.57,44.05-48.18,44.05S10.18,72.54,10.18,48.21,31.75,4.16,58.37,4.16s48.18,19.72,48.18,44.05Z"/>
      <path class="cls-1" d="M95.13,51.25c0,18.04-15.93,32.66-35.57,32.66s-35.57-14.62-35.57-32.66,15.93-32.66,35.57-32.66,35.57,14.62,35.57,32.66Z"/>
      <path class="cls-6" d="M94.74,47.41c0,13.66-11.41,24.74-25.47,24.74s-25.46-11.08-25.46-24.74,11.41-24.74,25.46-24.74c4.79,0,9.28,1.28,13.11,3.53,6.47,4.97,10.99,12.01,12.33,20.03.02.38.03.78.03,1.18Z"/>
      <path class="cls-4" d="M91.34,51.2c0,16.02-14.21,29.01-31.74,29.01s-31.73-12.99-31.73-29.01,14.21-29.01,31.73-29.01,31.74,12.99,31.74,29.01Z"/>
      <path class="cls-1" d="M94.74,47.41c0,13.66-11.41,24.74-25.47,24.74s-25.46-11.08-25.46-24.74,11.41-24.74,25.46-24.74c4.79,0,9.28,1.28,13.11,3.53,6.47,4.97,10.99,12.01,12.33,20.03.02.38.03.78.03,1.18Z"/>
      <path class="cls-4" d="M89.68,41.37c0,4.98-4.15,9.01-9.28,9.01s-9.27-4.03-9.27-9.01,4.15-9.01,9.27-9.01,9.28,4.03,9.28,9.01Z"/>
      <g>
        <path class="cls-2" d="M105.98,70.05h11.79c.66,3.57,1.73,7.03,3.17,10.42,2.67,6.23,6.51,11.72,11.49,16.48,4.44,4.12,9.47,7.25,15.07,9.4,5.6,2.13,11.61,3.21,18.04,3.21,11.57,0,21.34-2.67,29.32-8.02,7.99-5.34,13.61-12.96,16.88-22.84l-37.37-2.73c-.8,2.3-1.9,4.05-3.29,5.25-1.4,1.2-3.03,1.81-4.9,1.81-3.11,0-5.42-1.13-6.95-3.39-1.53-2.26-2.3-5.72-2.3-10.37v-1.41l57.3-.08c.05-.54.09-1.14.12-1.85.02-.7.05-1.76.05-3.17,0-5.32-.57-10.22-1.71-14.73-.02-.14-.06-.27-.09-.4-.29-1.13-.63-2.23-1-3.31l-.04-.12h-.01c-.85-2.51-1.91-4.9-3.16-7.15-.04-.08-.08-.15-.13-.22-.35-.63-.71-1.25-1.1-1.85-.44-.7-.9-1.39-1.36-2.05-.01-.02-.02-.03-.03-.06-4.47-6.44-9.89-11.41-16.27-14.94-7.08-3.92-15.06-5.87-23.95-5.87-6.48,0-12.51,1.05-18.09,3.17-5.56,2.11-10.58,5.26-15.02,9.44-4.12,3.87-7.45,8.32-10.01,13.31h-14.88c.84,4.23,1.54,9.91,1.17,16.59-.35,6.26-1.53,11.53-2.73,15.5ZM157.27,47.92c.43-3.35,1.43-5.92,3.01-7.72,1.59-1.78,3.66-2.68,6.23-2.68,2.89,0,5.07.85,6.55,2.55,1.47,1.7,2.29,4.35,2.45,7.93l-18.24-.08Z"/>
        <path class="cls-1" d="M156.95,63.33c-3.93.14-9.41-.14-15.6-2.01-3.49-1.06-6.45-2.39-8.83-3.67,1.64,1.97,4.48,4.86,8.81,7.1,6.61,3.43,12.83,3.33,15.63,3.1v-4.52Z"/>
        <path class="cls-1" d="M183.63,47.32l29.06.69-1.13-3.83c-3.65-1.31-13.3-4.16-22.92.16-1.93.87-3.59,1.9-5.01,2.98Z"/>
        <path class="cls-1" d="M208.4,37.03l-25.11-.38c.78-.8,1.57-1.46,2.35-2.01,7.39-5.19,17.01-2.74,20.13-1.8.88,1.4,1.75,2.79,2.63,4.19Z"/>
      </g>
      <path class="cls-1" d="M106.79,158.76c-2.67-2.17-5.4-3.8-8.2-4.89-2.8-1.08-5.73-1.63-8.8-1.63-5.07,0-9.1,1.26-12.1,3.77-3,2.51-4.5,5.85-4.5,10.01s1.47,7.22,4.4,9.73c2.93,2.51,6.73,3.77,11.4,3.77,2.93,0,5.88-.6,8.85-1.82,2.97-1.21,5.95-2.99,8.95-5.35v38.26c-5.2,2.36-10.22,4.1-15.05,5.21-4.83,1.12-9.58,1.68-14.25,1.68-7.67,0-14.77-1.2-21.3-3.58-6.53-2.39-12.33-5.91-17.4-10.57-5.33-4.96-9.4-10.6-12.2-16.9-2.8-6.3-4.2-12.99-4.2-20.06,0-4.9.68-9.67,2.05-14.29,1.37-4.62,3.42-9.01,6.15-13.17,5.2-7.88,11.81-13.92,19.85-18.11,8.03-4.19,17.05-6.28,27.05-6.28,4.4,0,9.02.43,13.85,1.3,4.83.87,9.98,2.2,15.45,4v38.92Z"/>
      <path class="cls-1" d="M120.5,118.32h39.31v47.69c0,6.85.46,11.26,1.39,13.24.93,1.98,2.64,2.97,5.13,2.97s4.04-.94,4.97-2.83c.93-1.89,1.39-6.35,1.39-13.38v-47.69h39.23v52.5c0,16.84-3.65,29.15-10.94,36.94-7.29,7.79-18.85,11.69-34.65,11.69s-27.47-3.89-34.81-11.69c-7.35-7.79-11.02-20.11-11.02-36.94v-52.5Z"/>
      <path class="cls-1" d="M288.44,115.87c-.47-.03-1.15-.05-2.09-.05-6.01,0-11.48,1.41-16.43,4.25-4.95,2.83-9.44,7.08-13.46,12.74v-13.83h-34.91v98.66h36.4v-39.12c0-5.97,1.62-10.63,4.88-13.93,3.24-3.31,7.84-4.97,13.77-4.97,1.8,0,3.78.35,5.95,1.05,2.16.7,4.55,1.78,7.14,3.24v-47.9c-.36-.06-.78-.1-1.25-.14Z"/>
      <path class="cls-1" d="M295.45,207.7l10.63-29.7c4.42,3.48,8.48,6.11,12.15,7.91,3.68,1.8,6.82,2.7,9.44,2.7,2.13,0,3.76-.48,4.88-1.44,1.12-.96,1.68-2.31,1.68-4.05,0-2.42-2.37-4.19-7.12-5.31-1.6-.37-2.85-.68-3.76-.93-7.78-2.23-13.45-5.54-16.99-9.92-3.55-4.38-5.32-10.16-5.32-17.36,0-10.12,3.61-18.37,10.83-24.76,7.22-6.39,16.64-9.59,28.26-9.59,5.81,0,11.37.64,16.67,1.91,5.3,1.27,10.27,3.18,14.91,5.73l-9.83,28.95c-3.73-2.92-7.09-5.11-10.07-6.56-2.99-1.46-5.57-2.19-7.75-2.19-1.81,0-3.28.45-4.4,1.35-1.12.9-1.68,2.09-1.68,3.58,0,2.42,3.14,4.41,9.43,5.96,1.49.37,2.66.68,3.52.93,8.05,2.23,13.96,5.51,17.75,9.82,3.78,4.31,5.68,9.95,5.68,16.9,0,10.8-3.73,19.6-11.19,26.39-7.46,6.8-17.32,10.2-29.58,10.2-6.66,0-13.19-.89-19.59-2.65-6.4-1.77-12.58-4.39-18.55-7.87Z"/>
      <g>
        <path class="cls-3" d="M341.73,107.86c-5.96,0-11.55-1.09-16.62-3.25-5.05-2.15-9.61-5.37-13.54-9.56-4.15-4.5-7.37-9.68-9.56-15.4-2.19-5.73-3.3-11.9-3.3-18.35,0-4.47.54-8.87,1.61-13.08,1.07-4.2,2.69-8.25,4.83-12.02,4.06-7.15,9.28-12.7,15.51-16.48,6.21-3.77,13.3-5.68,21.06-5.68,3.44,0,7.11.4,10.91,1.2,3.45.72,7.15,1.81,11.03,3.23v31.35c-1.27-.9-2.57-1.65-3.88-2.23-2.54-1.15-5.23-1.73-8.01-1.73-4.66,0-8.45,1.4-11.28,4.15-2.84,2.77-4.28,6.45-4.28,10.94s1.41,7.89,4.18,10.66c2.77,2.76,6.38,4.17,10.72,4.17,2.68,0,5.4-.65,8.09-1.92,1.48-.7,2.97-1.6,4.45-2.67v30.92c-3.72,1.88-7.36,3.31-10.81,4.24-3.76,1.01-7.5,1.52-11.12,1.52Z"/>
        <path class="cls-7" d="M341.73,16.03c3.3,0,6.83.39,10.49,1.15,2.97.62,6.13,1.52,9.44,2.68v26.4c-.35-.18-.7-.35-1.05-.51-2.8-1.26-5.77-1.9-8.83-1.9-5.2,0-9.46,1.59-12.68,4.72-3.24,3.16-4.88,7.32-4.88,12.37s1.61,8.92,4.77,12.08c3.16,3.15,7.24,4.75,12.14,4.75,2.98,0,5.99-.71,8.94-2.11.53-.25,1.06-.53,1.6-.82v26.02c-3.21,1.55-6.34,2.75-9.33,3.55-3.59.97-7.16,1.46-10.6,1.46-5.69,0-11.02-1.04-15.84-3.09-4.79-2.04-9.12-5.1-12.84-9.07-3.99-4.32-7.07-9.29-9.17-14.77-2.1-5.5-3.17-11.43-3.17-17.63,0-4.3.52-8.54,1.55-12.59,1.02-4.03,2.58-7.91,4.63-11.53,3.89-6.85,8.87-12.15,14.81-15.76,5.9-3.58,12.63-5.39,20.02-5.39M341.73,12.03c-8.17,0-15.53,1.99-22.1,5.97-6.56,3.98-11.97,9.72-16.21,17.2-2.23,3.95-3.91,8.12-5.02,12.52-1.12,4.39-1.67,8.92-1.67,13.58,0,6.72,1.14,13.08,3.43,19.06,2.29,5.99,5.61,11.34,9.97,16.05,4.14,4.42,8.88,7.77,14.21,10.04,5.34,2.27,11.14,3.41,17.4,3.41,3.81,0,7.69-.53,11.64-1.59,3.95-1.06,8.05-2.71,12.29-4.95v-36.35c-2.45,2.24-4.89,3.94-7.31,5.09-2.42,1.15-4.83,1.72-7.23,1.72-3.81,0-6.92-1.19-9.31-3.58-2.4-2.39-3.59-5.47-3.59-9.24s1.23-7.12,3.68-9.51c2.45-2.39,5.75-3.58,9.88-3.58,2.5,0,4.9.52,7.19,1.55,2.29,1.03,4.52,2.58,6.7,4.64V17.07c-4.47-1.71-8.67-2.98-12.62-3.8-3.95-.83-7.72-1.24-11.31-1.24h0Z"/>
      </g>
      <g>
        <path class="cls-3" d="M406.41,107.16c-8.96,0-16.22-4.12-22.17-12.59-6.03-8.57-9.09-19.83-9.09-33.45s2.98-25.88,8.86-34.48c5.8-8.48,13.12-12.61,22.4-12.61,4.72,0,9.06,1.13,12.91,3.37,3.9,2.27,7.59,5.87,10.97,10.7l3.64,5.2v-16.38h34.37v86.81h-32.93v-18.19l-3.65,5.36c-3.82,5.6-7.83,9.77-11.94,12.39-4.02,2.56-8.51,3.86-13.36,3.86ZM421.81,44.9c-3.72,0-6.76,1.49-9.04,4.42-2.16,2.78-3.25,6.4-3.25,10.76s1.1,7.88,3.27,10.6c2.28,2.86,5.31,4.31,9.02,4.31s6.81-1.44,9.06-4.27c2.14-2.69,3.23-6.27,3.23-10.64s-1.1-8.06-3.26-10.81c-2.28-2.9-5.32-4.37-9.03-4.37Z"/>
        <path class="cls-7" d="M406.41,16.03c4.42,0,8.32,1.01,11.91,3.1,3.65,2.13,7.13,5.53,10.34,10.12l7.28,10.4v-20.73h30.37v82.81h-28.93v-22.68l-7.31,10.72c-3.66,5.38-7.49,9.36-11.37,11.83-3.74,2.39-7.76,3.54-12.29,3.54-8.26,0-14.98-3.84-20.54-11.74-5.79-8.23-8.72-19.1-8.72-32.3,0-13.86,2.86-25.09,8.52-33.35,5.4-7.9,12.18-11.74,20.75-11.74M421.81,76.98c4.34,0,8.02-1.74,10.63-5.02,2.43-3.06,3.66-7.06,3.66-11.89s-1.24-8.93-3.69-12.05c-2.64-3.35-6.31-5.13-10.6-5.13s-7.98,1.79-10.62,5.19c-2.44,3.14-3.67,7.17-3.67,11.98s1.25,8.76,3.7,11.84c2.64,3.31,6.3,5.07,10.59,5.07M406.41,12.03c-9.89,0-17.91,4.49-24.05,13.48-6.14,8.99-9.21,20.86-9.21,35.61s3.15,25.64,9.45,34.6c6.3,8.96,14.24,13.44,23.81,13.44,5.26,0,10.08-1.39,14.44-4.17,4.36-2.78,8.53-7.1,12.52-12.95v13.7h36.93V14.93h-38.37v12.03c-3.56-5.09-7.43-8.85-11.61-11.29-4.18-2.43-8.81-3.64-13.92-3.64h0ZM421.81,72.98c-3.08,0-5.57-1.19-7.46-3.56-1.89-2.37-2.83-5.49-2.83-9.35s.94-7.1,2.83-9.53c1.89-2.43,4.37-3.64,7.46-3.64s5.57,1.2,7.46,3.6c1.89,2.4,2.83,5.59,2.83,9.57s-.93,7.06-2.79,9.4c-1.86,2.34-4.36,3.51-7.5,3.51h0Z"/>
      </g>
      <g>
        <path class="cls-3" d="M253.26,107.56c-6.59,0-13.13-.83-19.46-2.45-5.78-1.49-11.46-3.66-16.89-6.46l9.27-24.11c3.8,2.64,7.36,4.72,10.61,6.2,4.04,1.84,7.46,2.74,10.44,2.74,2.63,0,4.72-.61,6.22-1.81,1.61-1.29,2.46-3.16,2.46-5.4,0-3.35-2.97-5.7-8.82-6.99-1.62-.35-2.88-.64-3.76-.87-7.48-2-12.97-4.96-16.3-8.78-3.27-3.76-4.93-8.86-4.93-15.16,0-9.05,3.37-16.23,10.31-21.95,6.96-5.73,16.22-8.64,27.53-8.64,5.74,0,11.31.59,16.55,1.76,4.61,1.03,9.02,2.53,13.12,4.47l-9.7,25.93c-2.72-1.85-5.54-3.49-8.43-4.89-2.94-1.43-5.29-2.31-7.92-2.31-.33,0-.67.01-1.02.04-2.5.21-5.29,1.87-5.63,4.29-.15,1.03-.59,4.17,9.85,7.36,1.35.41,2.47.65,3.15.79.22.05.4.08.52.11,7.79,2.01,13.55,4.96,17.13,8.75,3.52,3.74,5.24,8.54,5.24,14.66,0,9.72-3.5,17.41-10.7,23.51-7.2,6.1-16.9,9.2-28.85,9.2Z"/>
        <path class="cls-7" d="M259.94,15.88c5.6,0,11.02.58,16.11,1.71,3.85.86,7.54,2.06,11.03,3.57l-8.17,21.83c-2.14-1.35-4.33-2.57-6.56-3.65-3.19-1.55-5.78-2.51-8.8-2.51-.39,0-.78.02-1.18.05-3.24.27-6.95,2.46-7.44,6-.56,4,3.01,7.03,11.25,9.55,1.44.44,2.62.69,3.32.84.18.04.33.07.43.09,7.42,1.92,12.86,4.67,16.17,8.19,3.16,3.35,4.7,7.7,4.7,13.29,0,9.09-3.27,16.29-9.99,21.99-6.83,5.79-16.1,8.72-27.55,8.72-6.42,0-12.8-.8-18.96-2.39-5.07-1.31-10.06-3.15-14.88-5.5l7.72-20.07c3.12,2.04,6.07,3.7,8.82,4.95,4.31,1.97,8,2.92,11.27,2.92,3.09,0,5.61-.76,7.47-2.24,2.1-1.68,3.21-4.09,3.21-6.97,0-4.42-3.5-7.43-10.4-8.94-1.59-.34-2.83-.63-3.64-.84-7.11-1.9-12.26-4.65-15.33-8.17-2.98-3.43-4.43-7.96-4.43-13.85,0-8.42,3.13-15.09,9.58-20.41,6.59-5.43,15.42-8.18,26.25-8.18M259.94,11.88c-11.84,0-21.44,3.03-28.8,9.1-7.36,6.06-11.04,13.9-11.04,23.49,0,6.83,1.8,12.32,5.42,16.47,3.61,4.15,9.38,7.29,17.31,9.41.92.24,2.2.53,3.83.88,4.83,1.06,7.25,2.74,7.25,5.03,0,1.65-.57,2.93-1.71,3.84-1.14.91-2.8,1.37-4.97,1.37-2.66,0-5.87-.85-9.61-2.56-3.75-1.71-7.88-4.21-12.38-7.51l-10.83,28.17c6.08,3.3,12.38,5.78,18.9,7.46,6.52,1.68,13.17,2.52,19.96,2.52,12.49,0,22.54-3.22,30.14-9.67,7.6-6.45,11.4-14.79,11.4-25.04,0-6.59-1.93-11.94-5.78-16.03-3.86-4.09-9.89-7.2-18.08-9.32-.52-.13-1.83-.35-3.58-.88-3.68-1.13-8.73-3.23-8.46-5.17.19-1.32,2.14-2.44,3.81-2.57.29-.02.57-.04.85-.04,2.14,0,4.13.69,7.05,2.11,2.64,1.28,6.23,3.26,10.26,6.23l11.24-30.05c-4.72-2.41-9.79-4.22-15.19-5.43-5.4-1.21-11.07-1.81-16.98-1.81h0Z"/>
      </g>
      <path class="cls-1" d="M476.88,166.44c0,7.3-1.33,14.26-3.99,20.88-2.66,6.62-6.46,12.45-11.4,17.51-4.31,4.37-9.24,7.69-14.79,9.97-5.56,2.28-11.55,3.42-17.98,3.42s-12.41-1.12-17.94-3.37c-5.53-2.25-10.5-5.58-14.91-10.02-4.89-4.87-8.68-10.66-11.36-17.37-2.69-6.71-4.03-13.72-4.03-21.02s1.34-14.37,4.03-21.02c2.68-6.65,6.47-12.44,11.36-17.37,4.41-4.43,9.38-7.77,14.91-10.02,5.53-2.25,11.51-3.37,17.94-3.37s12.43,1.14,17.98,3.42c5.56,2.28,10.54,5.6,14.95,9.97,4.84,4.87,8.59,10.64,11.24,17.32,2.66,6.68,3.99,13.7,3.99,21.06ZM428.72,179.64c2.87,0,5.21-1.22,7.02-3.65,1.81-2.44,2.71-5.62,2.71-9.55s-.89-7.19-2.67-9.6c-1.78-2.4-4.13-3.6-7.06-3.6s-5.36,1.2-7.14,3.6c-1.78,2.4-2.67,5.6-2.67,9.6s.89,7.19,2.67,9.6,4.16,3.6,7.14,3.6Z"/>
      <line class="cls-5" x1="85" y1="136.65" x2="86.54" y2="138.18"/>
      <g>
        <path class="cls-4" d="M33.1,176.04l28.19,3.03c.63-1.39,2.5-6,1.04-11.66-1.17-4.55-3.87-7.37-5.06-8.49.93,2.18,2.1,5.75,1.99,10.22-.05,2.17-.39,4.05-.79,5.56-6.5-.58-13-1.16-19.51-1.74.49-1.25.97-2.62,1.39-4.12.69-2.42,1.1-4.67,1.34-6.65-1.4,2.01-2.81,4.15-4.22,6.4-1.59,2.55-3.05,5.04-4.37,7.44Z"/>
        <path class="cls-4" d="M88.93,202.4c2.19.56,5.05,1.07,8.41,1.12,3.84.05,7.07-.51,9.45-1.12v-4.47c-2.25.87-4.75,1.72-7.51,2.46-3.77,1.01-7.26,1.63-10.35,2.01Z"/>
        <path class="cls-4" d="M88.86,191.23c2.2.34,5.56.59,9.53-.15,3.67-.69,6.53-1.98,8.4-3.01v-4.47c-2.23,1.31-4.75,2.64-7.58,3.9-3.73,1.66-7.24,2.85-10.35,3.72Z"/>
        <path class="cls-4" d="M97.3,136.79c0,1.12-.91,2.03-2.03,2.03s-2.04-.91-2.04-2.03c0-.12.01-.24.03-.35h0c-.13-.21-1.27-2.01-3.45-2.13-2.2-.14-3.52,1.49-3.64,1.63h-.01c.08.2.13.43.13.68,0,1.12-.91,2.03-2.04,2.03s-2.03-.91-2.03-2.03.91-2.04,2.03-2.04c.16,0,.31.02.47.06t-.02-.01c1.13-.38,1.99-1.39,2.22-2.55.22-1.21-.27-2.47-1.26-3.23-.22.08-.45.13-.7.13-1.13,0-2.04-.91-2.04-2.03s.91-2.04,2.04-2.04,2.03.91,2.03,2.04c0,.33-.08.63-.22.9t.02-.02c.08.13,1.11,1.7,3.08,1.75,1.98.06,3.09-1.49,3.17-1.61.01,0,.01.01.02.01-.19-.29-.29-.65-.29-1.03,0-1.13.91-2.04,2.03-2.04s2.04.91,2.04,2.04-.91,2.03-2.04,2.03c-.08,0-.15,0-.22-.02.01.01.02.01.04.02-.08.07-1.63,1.32-1.4,3.25.2,1.57,1.45,2.46,1.63,2.58.14-.04.28-.05.43-.05,1.12,0,2.03.91,2.03,2.04Z"/>
      </g>
    </g>
  </g>
</svg>